<?xml version="1.0"?>
<svg xmlns="http://www.w3.org/2000/svg" xmlns:xlink="http://www.w3.org/1999/xlink" version="1.1" viewBox="0 0 192 192" width="100px" height="100px"><g fill="none" fill-rule="nonzero" stroke="none" stroke-width="1" stroke-linecap="butt" stroke-linejoin="miter" stroke-miterlimit="10" stroke-dasharray="" stroke-dashoffset="0" font-family="none" font-weight="none" font-size="none" text-anchor="none" style="mix-blend-mode: normal"><path d="M0,192v-192h192v192z" fill="none"/><g fill="#ffffff"><path d="M85.2675,7.68c-1.87981,0.001 -3.48261,1.36258 -3.7875,3.2175l-3.735,22.8675c-4.49121,1.30648 -8.77383,3.06933 -12.81,5.265l-18.87,-13.4775c-1.52554,-1.08936 -3.61465,-0.91817 -4.9425,0.405l-14.94,14.925c-1.31788,1.31881 -1.49817,3.39365 -0.4275,4.92l13.275,18.99c-2.22953,4.05974 -4.03143,8.3665 -5.37,12.9l-22.77,3.7875c-1.84896,0.31144 -3.20273,1.9125 -3.2025,3.7875v21.12c-0.00338,1.86308 1.33095,3.45985 3.165,3.7875l22.785,4.035c1.33131,4.52564 3.12175,8.83537 5.355,12.9l-13.44,18.8025c-1.08935,1.52554 -0.91817,3.61464 0.405,4.9425l14.9325,14.94c1.31579,1.31615 3.38591,1.49946 4.9125,0.435l19.0275,-13.32c4.04808,2.20865 8.34118,3.98445 12.8475,5.3025l3.8025,22.8975c0.30817,1.85194 1.9101,3.20961 3.7875,3.21h21.12c1.86546,0.00274 3.46308,-1.33547 3.7875,-3.1725l4.0725,-22.9875c4.48773,-1.33825 8.76065,-3.14036 12.7875,-5.3625l19.155,13.44c1.52635,1.07067 3.60119,0.89038 4.92,-0.4275l14.9325,-14.9475c1.32912,-1.33196 1.49741,-3.43077 0.3975,-4.9575l-13.6575,-18.96c2.18371,-4.00756 3.94294,-8.25492 5.25,-12.7125l23.1075,-4.05c1.83703,-0.32442 3.17524,-1.92204 3.1725,-3.7875v-21.12c-0.001,-1.87981 -1.36258,-3.48261 -3.2175,-3.7875l-23.07,-3.7725c-1.31583,-4.4523 -3.07992,-8.69206 -5.265,-12.6975l13.47,-19.1925c1.07067,-1.52635 0.89038,-3.60119 -0.4275,-4.92l-14.94,-14.9325c-1.33196,-1.32912 -3.43077,-1.4974 -4.9575,-0.3975l-18.9075,13.5975c-4.02847,-2.21323 -8.3042,-4.00581 -12.8025,-5.3325l-4.02,-22.98c-0.32119,-1.84001 -1.91967,-3.1821 -3.7875,-3.18zM88.5375,15.36h14.625l3.825,21.8325c0.26003,1.49601 1.37711,2.69834 2.85,3.0675c5.61604,1.39951 10.89059,3.61795 15.705,6.5325c1.31577,0.79723 2.98033,0.7323 4.23,-0.165l17.97,-12.915l10.3425,10.3425l-12.795,18.2325c-0.87308,1.24263 -0.93188,2.88305 -0.15,4.185c2.88573,4.80355 5.0744,10.04479 6.4725,15.63c0.37211,1.48673 1.59254,2.60989 3.105,2.8575l21.915,3.585v14.625l-21.96,3.855c-1.49722,0.26503 -2.6971,1.38844 -3.06,2.865c-1.38193,5.5781 -3.57192,10.8192 -6.4575,15.6225c-0.79171,1.31544 -0.72387,2.97602 0.1725,4.2225l12.975,18.0075l-10.3425,10.35l-18.2025,-12.7725c-1.24903,-0.87489 -2.89737,-0.92787 -4.2,-0.135c-4.79046,2.91453 -10.07044,5.14343 -15.6675,6.5625c-1.46564,0.36947 -2.57826,1.56428 -2.8425,3.0525l-3.8775,21.84h-14.6475l-3.615,-21.7425c-0.25148,-1.51163 -1.37754,-2.72908 -2.865,-3.0975c-5.61939,-1.38506 -10.91766,-3.60015 -15.765,-6.51c-1.30013,-0.77862 -2.93657,-0.71986 -4.1775,0.15l-18.06,12.6525l-10.35,-10.365l12.765,-17.8425c0.89168,-1.24953 0.95362,-2.91002 0.1575,-4.2225c-2.94152,-4.8605 -5.16616,-10.15832 -6.57,-15.8025c-0.36691,-1.46856 -1.56225,-2.58459 -3.0525,-2.85l-21.6225,-3.84v-14.6475l21.6075,-3.5925c1.50958,-0.25034 2.72649,-1.37297 3.0975,-2.8575c1.41591,-5.66363 3.63947,-10.96058 6.57,-15.81c0.78959,-1.30083 0.73664,-2.94517 -0.135,-4.1925l-12.615,-18.03l10.3575,-10.35l17.9025,12.795c1.24466,0.8875 2.89716,0.9523 4.2075,0.165c4.82173,-2.89592 10.13229,-5.09321 15.7575,-6.4725c1.49478,-0.36801 2.62536,-1.59305 2.8725,-3.1125zM96,65.28c-16.9207,0 -30.72,13.7993 -30.72,30.72c0,16.9207 13.7993,30.72 30.72,30.72c16.9207,0 30.72,-13.7993 30.72,-30.72c0,-16.9207 -13.7993,-30.72 -30.72,-30.72zM96,72.96c12.77012,0 23.04,10.26988 23.04,23.04c0,12.77012 -10.26988,23.04 -23.04,23.04c-12.77012,0 -23.04,-10.26988 -23.04,-23.04c0,-12.77012 10.26988,-23.04 23.04,-23.04z"/></g></g></svg>
